<?xml version="1.0" encoding="UTF-8"?>
<svg width="98px" height="27px" viewBox="0 0 98 27" version="1.1" xmlns="http://www.w3.org/2000/svg" xmlns:xlink="http://www.w3.org/1999/xlink">
    <title>soccerLogo</title>
    <defs>
        <filter id="filter-1">
            <feColorMatrix in="SourceGraphic" type="matrix" values="0 0 0 0 1.000000 0 0 0 0 1.000000 0 0 0 0 1.000000 0 0 0 1.000000 0"></feColorMatrix>
        </filter>
        <polygon id="path-2" points="0.137418987 0.0634535237 15.4624431 0.0634535237 15.4624431 15.8008096 0.137418987 15.8008096"></polygon>
    </defs>
    <g id="Page-1" stroke="none" stroke-width="1" fill="none" fill-rule="evenodd">
        <g id="Prematch-Setup" transform="translate(-31.000000, -19.000000)">
            <g id="soccerLogo" transform="translate(31.000000, 19.000000)" filter="url(#filter-1)">
                <g>
                    <polygon id="Fill-1" fill="#22B573" points="71.8580989 19.5322523 79.4007465 19.5322523 79.4007465 16.268989 71.8580989 16.268989 71.8580989 13.4158959 79.9890074 13.4158959 79.9890074 10 67 10 67 26 80 26 80 22.3752553 71.8580989 22.3752553"></polygon>
                    <g id="Group-15">
                        <g id="Group-4" transform="translate(81.715330, 10.239521)">
                            <mask id="mask-3" fill="white">
                                <use xlink:href="#path-2"></use>
                            </mask>
                            <g id="Clip-3"></g>
                            <path d="M9.06045237,5.7318948 C8.85943889,5.99575937 8.59433191,6.15707121 8.27698325,6.22638489 C7.64556078,6.36438213 7.2213896,6.43905187 7.00384592,6.43905187 L4.97250261,6.43905187 L4.97250261,3.24038305 L7.08727665,3.24038305 C7.96337728,3.24038305 8.56329879,3.37790769 8.88236285,3.65075154 C9.2000234,3.92217761 9.36142677,4.31017669 9.36142677,4.81947471 C9.36142677,5.16399521 9.26037423,5.46960553 9.06045237,5.7318948 L9.06045237,5.7318948 Z M13.1335873,11.2388667 C13.01772,11.0120219 12.7964336,10.6841997 12.458968,10.2605986 C12.1235297,9.83951801 11.8635689,9.56352354 11.6900018,9.43608088 C11.4261424,9.2426327 11.0080531,9.04792427 10.4351101,8.85353091 C11.1494954,8.69253413 11.7141733,8.48522322 12.1252451,8.23459125 C12.7678956,7.84202377 13.2773689,7.32563685 13.6450879,6.69188927 C14.0120271,6.05955947 14.1966663,5.30671838 14.1966663,4.43100304 C14.1966663,3.43099567 13.9555749,2.58032778 13.4749516,1.88451294 C12.9923009,1.18602008 12.3560441,0.709646062 11.5705477,0.451925196 C10.7872345,0.194676923 9.64821016,0.0634535237 8.16080401,0.0634535237 L0.137418987,0.0634535237 L0.137418987,15.8008096 L4.97250261,15.8008096 L4.97250261,9.41418406 L5.39682974,9.41418406 C5.83425627,9.41418406 6.23347621,9.5334351 6.57593206,9.77697817 C6.8343334,9.96065942 7.120493,10.3724457 7.44984944,10.9896525 L10.0216991,15.8008096 L15.4624742,15.8008096 L13.1335873,11.2388667 Z" id="Fill-2" fill="#22B573" mask="url(#mask-3)"></path>
                        </g>
                        <path d="M11.5237485,16.8471468 C10.613184,16.3780193 9.10784414,15.9126724 7.00429816,15.4547295 C6.15174528,15.2751441 5.6149816,15.084689 5.38636581,14.8758028 C5.15416328,14.6743205 5.03798404,14.4507839 5.03798404,14.2015697 C5.03798404,13.8572067 5.17927047,13.5638838 5.46246711,13.3258544 C5.74519592,13.0840441 6.16640414,12.966841 6.72843095,12.966841 C7.40679295,12.966841 7.93996989,13.1279953 8.32453097,13.4468382 C8.71252284,13.7693044 8.96655771,14.2858488 9.08616775,14.9930059 L13.6237078,14.7256756 C13.4244097,13.0950713 12.8039034,11.9042938 11.7595378,11.1568088 C10.7148603,10.4093237 9.19486161,10.0355024 7.20359624,10.0355024 C5.58223309,10.0355024 4.30550903,10.2406079 3.37311215,10.6509764 C2.44102717,11.0651257 1.74473147,11.629402 1.2803264,12.3475863 C0.815921337,13.0657705 0.584030695,13.8315292 0.584030695,14.641239 C0.584030695,15.8723444 1.03736364,16.8836941 1.94402954,17.6787535 C2.84383385,18.474128 4.34886182,19.1078755 6.45989317,19.5875577 C7.75143204,19.8734766 8.57076857,20.1776692 8.92632383,20.5001353 C9.28203503,20.8226015 9.45606997,21.1890188 9.45606997,21.5957641 C9.45606997,22.0245637 9.27111886,22.4020082 8.90121664,22.72794 C8.52757173,23.0540294 7.99798153,23.2151837 7.31244605,23.2151837 C6.39096535,23.2151837 5.68032268,22.9001215 5.18691179,22.2625932 C4.8821947,21.8668751 4.67884204,21.2953523 4.58106435,20.5440865 L1.55945287e-05,20.8334711 C0.134284487,22.4237475 0.710970158,23.7318857 1.73365935,24.7615089 C2.75291775,25.7945978 4.58823783,26.3076766 7.23634475,26.3076766 C8.74527135,26.3076766 9.99642039,26.0880782 10.9868289,25.6482514 C11.9806682,25.2085821 12.7535331,24.5636498 13.3046437,23.7099889 C13.8557544,22.8597936 14.1352083,21.9290999 14.1352083,20.9213735 C14.1352083,20.0603085 13.9246822,19.2835227 13.5114272,18.5911736 C13.0978603,17.8950437 12.4343131,17.3161169 11.5237485,16.8471468" id="Fill-5" fill="#22B573"></path>
                        <path d="M23.472448,21.3800883 C21.6800128,21.3800883 20.2262909,19.9115834 20.2262909,18.1009211 C20.2262909,16.2901012 21.6800128,14.8215963 23.472448,14.8215963 C25.265039,14.8215963 26.7186051,16.2901012 26.7186051,18.1009211 C26.7186051,19.9115834 25.265039,21.3800883 23.472448,21.3800883 M23.4721361,10.1615116 C19.1328025,10.1615116 15.6131174,13.7169883 15.6131174,18.1010786 C15.6131174,22.4846963 19.1328025,26.0403305 23.4721361,26.0403305 C27.8122494,26.0403305 31.3317785,22.4846963 31.3317785,18.1010786 C31.3317785,13.7169883 27.8122494,10.1615116 23.4721361,10.1615116" id="Fill-7" fill="#22B573"></path>
                        <path d="M57.1893785,10.1614643 C53.5318377,10.1614643 50.4572204,12.6866877 49.5808079,16.1051124 L54.6136302,16.1051124 C55.2073139,15.3247034 56.1401786,14.8215491 57.1898463,14.8215491 C58.9818136,14.8215491 60.4356915,16.2902114 60.4356915,18.1008738 C60.4356915,19.9115362 58.9818136,21.380041 57.1898463,21.380041 C56.1401786,21.380041 55.2077817,20.8767292 54.614098,20.0966352 L49.5808079,20.0966352 C50.4572204,23.5149023 53.5318377,26.0402833 57.1893785,26.0402833 C61.5294918,26.0402833 65.048865,22.4849641 65.048865,18.1008738 C65.048865,13.7167835 61.5294918,10.1614643 57.1893785,10.1614643" id="Fill-9" fill="#22B573"></path>
                        <path d="M40.8376574,14.8215491 C41.8870133,14.8215491 42.819722,15.3247034 43.4134057,16.1051124 L48.4466958,16.1051124 C47.5702833,12.6866877 44.4955101,10.1614643 40.8378134,10.1614643 C36.497856,10.1614643 32.9784828,13.7167835 32.9784828,18.1008738 C32.9784828,22.4849641 36.497856,26.0402833 40.8378134,26.0402833 C44.4955101,26.0402833 47.5702833,23.5149023 48.4466958,20.0966352 L43.4130939,20.0966352 C42.8195661,20.8767292 41.8868573,21.380041 40.8376574,21.380041 C39.0453783,21.380041 37.5916563,19.9115362 37.5916563,18.1008738 C37.5916563,16.2902114 39.0453783,14.8215491 40.8376574,14.8215491" id="Fill-11" fill="#22B573"></path>
                        <path d="M41.9912627,8.93281631 C42.2835042,8.551276 42.7516519,8.01141695 43.2385131,7.7431415 C43.2385131,7.7431415 45.1767571,8.89343353 47.9870471,8.84444136 C47.9870471,8.84444136 48.9174167,10.3617808 48.9005746,11.5364902 C48.9005746,11.5364902 48.3103217,11.7707389 47.8442012,12.1242387 C46.3666196,10.3775339 44.2799157,9.22535154 41.9912627,8.93281631 M40.0043638,8.89658415 C40.0676776,7.11601023 40.6674432,5.46981032 41.6436607,4.1169333 C41.8636995,3.91182782 42.0980852,3.71633174 42.3471298,3.53217789 C42.6738352,3.69963344 42.9821391,3.85779466 43.8808517,4.46302911 C43.3913395,5.57897936 43.1854917,6.20343261 43.0066225,7.48620829 C42.4495859,7.89783703 41.9711458,8.3709029 41.588456,8.89028291 C41.3400352,8.86980387 41.0898989,8.85814657 40.8378914,8.85814657 C40.5620241,8.85814657 40.2827261,8.87106412 40.0043638,8.89658415 M57.122478,8.22046071 C56.7645835,7.28882183 56.156241,6.4409895 55.3570214,5.72217513 C54.9409593,4.46428936 54.6576068,3.88961594 53.9787769,2.92741603 C54.1252095,2.86235569 54.2399853,2.81430871 54.3346441,2.77870668 C55.8477812,4.16009682 56.8779558,6.07409959 57.122478,8.22046071 M50.2126982,1.72765924 C51.5100071,1.91338839 52.7107858,2.31430502 53.7481338,2.88094436 C54.3778409,3.78863851 54.7095365,4.3768596 55.1335518,5.66971727 C54.3602191,6.1131673 53.9722272,6.35355974 53.1973351,6.90397338 C52.2700844,6.39751092 51.1968689,6.03912768 50.0371038,5.87308991 C49.4379621,4.86378821 49.0892684,4.3722912 48.2052146,3.45089185 C49.1153113,2.51625988 49.5422895,2.1774105 50.2126982,1.72765924 M43.3252187,2.36345472 C44.6150422,1.34863943 46.1963274,0.696145647 47.916092,0.560353846 C48.5815105,0.780582312 49.0245511,0.988208291 49.8240826,1.59013459 C49.4827184,1.8212327 48.7726995,2.30233266 48.1367546,2.98444228 C48.0374174,3.0909333 47.9382362,3.27681999 47.8061506,3.3392023 C46.4628379,3.42537181 45.2059189,3.73870115 44.0997989,4.22846532 C43.2191759,3.63094988 42.9317687,3.4775146 42.563426,3.29572372 C42.8456869,2.91890935 43.0796049,2.62542893 43.3252187,2.36345472 M50.4810801,11.7874372 C50.1130492,11.6262829 49.7082152,11.5090798 49.2781181,11.4473276 C49.0833425,10.4126634 48.9085278,9.84602404 48.315156,8.72723823 C48.8469294,7.72155974 49.1656816,7.21635753 50.0045113,6.20705583 C51.1385454,6.36947038 52.1880572,6.71981953 53.0947231,7.21509728 C53.2452103,8.24251506 53.2837288,8.86050953 53.1597523,9.79892225 C52.1578038,10.291837 51.2486428,10.9649674 50.4810801,11.7874372 M57.1893785,9.32711663 C57.2614252,9.32711663 57.33316,9.32837688 57.4047389,9.32995219 L57.6455185,9.33578084 L57.6422436,9.09255283 C57.6118343,6.67429304 56.6565134,4.40553026 54.9523434,2.70466707 C53.2469257,1.00207103 50.9869666,0.0644459696 48.58884,0.0644459696 C43.6255693,0.0644459696 39.5639743,4.14292593 39.5345007,9.15603786 L39.5327853,9.42195035 L39.7941496,9.39044413 C40.1415957,9.34854086 40.4927844,9.32711663 40.8378914,9.32711663 C44.2652569,9.32711663 47.3914921,11.3616307 48.8021731,14.5103621 L49.0136349,14.9823253 L49.2252527,14.5103621 C50.6360897,11.3616307 53.762013,9.32711663 57.1893785,9.32711663" id="Fill-13" fill="#22B573"></path>
                    </g>
                </g>
            </g>
        </g>
    </g>
</svg>